<svg width="34" height="34" viewBox="0 0 34 34" fill="none" xmlns="http://www.w3.org/2000/svg">
<path fill-rule="evenodd" clip-rule="evenodd" d="M21.7345 1.00562C21.7345 1.02732 21.8207 1.19026 21.9261 1.36769C22.6993 2.67029 23.2952 4.31112 23.5759 5.91071C23.7435 6.86554 23.6789 8.63267 23.4285 9.94143C23.3287 10.463 23.309 10.5129 23.1716 10.5945C23.0897 10.643 22.258 11.0625 21.3234 11.5266C20.3888 11.9907 19.5158 12.4284 19.3833 12.4995C19.2509 12.5705 19.1152 12.6283 19.0818 12.6279C19.0485 12.6275 18.9658 12.571 18.8982 12.5022L18.7752 12.3772L19.0692 12.1621C19.4073 11.9149 19.8708 11.5113 19.8708 11.4642C19.8708 11.3933 19.0259 10.7537 18.7059 10.5823C18.3394 10.3861 18.0273 10.2646 17.9786 10.2992C17.9621 10.3109 18.075 10.4708 18.2295 10.6543C18.4591 10.9275 18.5157 11.031 18.5403 11.2233C18.5672 11.4343 18.5556 11.472 18.4272 11.5916C18.1672 11.8338 17.9162 11.8879 17.0167 11.8951C16.3096 11.9007 16.2019 11.8927 16.0012 11.8194C15.6928 11.7068 15.4308 11.487 15.4308 11.3411C15.4308 11.1666 15.6196 10.8189 15.8657 10.54C16.0522 10.3287 16.0696 10.2919 15.9833 10.2919C15.7947 10.2919 15.2275 10.6016 14.6974 10.994C14.4074 11.2087 14.1701 11.4155 14.1701 11.4537C14.1701 11.5244 14.6143 11.9345 15.0059 12.2253L15.2233 12.3868L15.0975 12.5077C15.0283 12.5742 14.9505 12.6286 14.9246 12.6286C14.8987 12.6286 14.4162 12.3956 13.8523 12.1109C13.2885 11.8261 12.342 11.3504 11.7491 11.0537C10.8164 10.5868 10.6668 10.4979 10.6393 10.3933C10.6218 10.3268 10.5568 9.90443 10.4948 9.45463C10.3492 8.39803 10.296 6.80775 10.3838 6.13974C10.5725 4.70379 11.2134 2.85395 11.983 1.52389C12.1331 1.26448 12.2446 1.04422 12.2308 1.03444C12.1847 1.00169 11.3068 2.08609 10.7739 2.83413C10.1372 3.72786 9.58133 4.64359 9.26111 5.32655C8.83849 6.22779 8.71888 7.15272 8.75862 9.21165C8.78225 10.4329 8.81936 10.8581 8.93677 11.2513C8.95628 11.3166 9.01702 11.3404 9.21917 11.3619C9.36081 11.377 9.64487 11.4324 9.85042 11.4851C10.3184 11.605 11.7424 12.0675 12.2985 12.2802C12.9642 12.5348 14.3895 13.1404 14.3881 13.1681C14.3875 13.1819 14.3421 13.2347 14.2873 13.2852L14.1878 13.3772L13.5349 13.315C11.9351 13.1625 9.39129 13.057 7.3154 13.057C6.44626 13.057 5.72249 13.0425 5.70708 13.0247C5.69168 13.007 5.62377 12.7398 5.55612 12.4309C5.39612 11.6999 5.3828 10.3408 5.52833 9.59093C5.7107 8.65082 6.00643 7.74369 6.3385 7.10567C6.43119 6.92754 6.49702 6.77469 6.4848 6.76596C6.43979 6.73399 5.65046 7.72364 5.13241 8.46155C4.52698 9.32393 4.35634 9.6659 4.16471 10.4011C3.95866 11.1915 3.90198 12.0378 3.97521 13.2317C4.00931 13.7884 4.04707 14.2508 4.05908 14.2594C4.07108 14.2679 4.32213 14.2471 4.61698 14.2132C6.56685 13.9888 10.6257 13.8561 13.2058 13.9325L14.1805 13.9614L14.2536 14.0836C14.2938 14.1508 14.3099 14.2169 14.2895 14.2306C14.269 14.2442 13.7713 14.293 13.1834 14.339C10.5164 14.5477 8.0338 14.8693 5.15307 15.379C3.46302 15.678 1.11882 16.1673 1.00502 16.2447C0.984684 16.2585 1.02799 16.4276 1.10128 16.6203C1.24522 16.9991 1.36345 17.4289 1.75494 18.9959C2.65111 22.5831 3.67148 25.0793 4.77595 26.3864C5.48613 27.2268 7.22896 29.0182 8.23366 29.9402C8.65316 30.3252 9.27306 30.8943 9.61115 31.2049C10.2724 31.8124 11.7749 33.0152 11.8024 32.9591C11.8116 32.9404 11.5742 32.6913 11.2748 32.4057C10.6171 31.7782 9.78683 30.8975 9.20651 30.2118C8.12589 28.935 6.61531 26.6144 6.13919 25.4996C5.33407 23.6145 4.49732 20.4044 4.15917 17.9035C4.10688 17.5169 4.07848 17.1739 4.09608 17.1413C4.15851 17.0256 6.14165 16.4766 8.66121 15.8773C10.3787 15.4688 11.7932 15.175 13.4538 14.8818C14.5174 14.6941 14.5775 14.6876 14.6461 14.7542C14.7914 14.8954 14.7329 14.9457 14.266 15.081C12.5307 15.5842 8.23015 17.1022 6.61783 17.7807L6.05444 18.0177L6.08542 18.2342C6.25309 19.4059 6.46747 20.7687 6.58193 21.391C7.12317 24.3333 8.36149 26.9003 10.414 29.3347C10.7116 29.6877 10.9634 29.9588 10.9735 29.9372C10.9837 29.9155 10.8536 29.6706 10.6845 29.3928C10.1732 28.5529 9.6327 27.4384 9.13646 26.2006C8.67541 25.0507 8.39175 23.4883 8.14289 20.7289C8.08204 20.0542 8.02575 19.2482 8.01785 18.9378L8.00344 18.3733L8.55158 18.1075C9.8508 17.4773 14.7741 15.3547 14.9364 15.3547C14.9641 15.3547 15.0091 15.3829 15.0363 15.4174C15.0763 15.4683 14.9707 15.5354 14.4772 15.7723C13.5533 16.2158 11.7656 17.2421 11.6305 17.4065C11.5535 17.5003 11.5611 19.9956 11.6401 20.5148C11.7021 20.9221 11.7357 21.0139 11.9015 21.2298C12.1841 21.5978 12.7147 22.1509 13.102 22.4814C14.0255 23.2696 15.6423 24.2266 16.6819 24.6005C17.0559 24.735 17.1352 24.7176 17.9912 24.3125C19.5527 23.5735 20.6898 22.7824 21.6249 21.7846C22.4012 20.9562 22.4147 20.9071 22.4176 18.9029L22.4197 17.4467L21.9538 17.1371C21.3008 16.7031 20.4715 16.235 19.6891 15.8587C19.3217 15.682 19.0019 15.5255 18.9783 15.511C18.9243 15.4776 18.9874 15.3547 19.0585 15.3547C19.1826 15.3547 22.335 16.6874 23.8449 17.3782C24.3876 17.6265 25.099 17.9518 25.4258 18.1012L26.0201 18.3728L25.9856 19.0738C25.8895 21.0262 25.5677 23.6973 25.2935 24.8181C25.1402 25.4451 24.6353 26.8236 24.2879 27.5636C24.0404 28.091 23.4 29.285 23.0798 29.8162C23.0302 29.8985 23.0159 29.9543 23.0479 29.9402C23.217 29.8659 24.5168 28.2166 25.0112 27.4489C26.5875 25.0014 27.2948 22.8903 27.7912 19.1517C27.8395 18.7876 27.8935 18.3827 27.911 18.2519L27.943 18.0142L27.4836 17.8189C25.8386 17.1196 22.855 16.062 19.8434 15.1108C19.3544 14.9564 19.2969 14.9277 19.3106 14.8452C19.319 14.7943 19.3449 14.7391 19.3683 14.7225C19.3916 14.7059 19.9854 14.7976 20.6879 14.9262C23.6157 15.4622 26.1543 16.0417 28.5707 16.7255L29.9528 17.1167L29.9271 17.2774C29.9129 17.3659 29.8268 17.9376 29.7356 18.5481C29.3155 21.3614 28.361 24.5989 27.4314 26.363C26.8736 27.4218 25.6188 29.2467 24.7315 30.2897C24.2402 30.8673 23.1754 31.9926 22.6636 32.4753C22.2347 32.8797 22.0429 33.0977 22.2392 32.9574C22.6356 32.6742 23.7083 31.8138 24.0359 31.5165C24.26 31.313 24.7545 30.8661 25.1348 30.5234C26.2558 29.5131 26.9256 28.8649 27.8309 27.9141C29.3302 26.3395 29.6764 25.9034 30.1653 24.9739C30.9402 23.5004 31.6133 21.5546 32.341 18.6844C32.6487 17.4705 32.8574 16.7172 32.9494 16.4886C32.9957 16.3733 33.0135 16.2659 32.9889 16.25C32.9252 16.2089 31.5345 15.8885 30.7241 15.7283C27.968 15.1833 25.3233 14.7768 22.9953 14.5402C22.2278 14.4623 19.921 14.2651 19.769 14.2645C19.6788 14.2641 19.7287 14.0789 19.8408 13.9974C19.9622 13.9092 25.0271 13.9136 26.5856 14.0032C28.0911 14.0898 29.0501 14.1666 29.545 14.2404C29.7557 14.2719 29.9324 14.2944 29.9377 14.2906C29.9429 14.2868 29.974 13.9945 30.0067 13.6411C30.1615 11.9685 29.9948 10.5279 29.5315 9.53353C29.4219 9.2985 29.1336 8.82506 28.8908 8.48145C28.3802 7.7588 27.598 6.78695 27.527 6.78695C27.5002 6.78695 27.4973 6.8176 27.5204 6.85511C27.8596 7.40445 28.1642 8.24 28.4079 9.28989C28.5397 9.85797 28.5548 10.0245 28.5568 10.9345C28.5589 11.8923 28.5106 12.3289 28.3341 12.9499L28.3036 13.057L27.0609 13.0572C24.5878 13.0577 21.9361 13.1689 20.0353 13.352C19.8033 13.3743 19.7828 13.3687 19.6911 13.2572L19.5937 13.1387L20.1023 12.9272C22.2146 12.0489 23.8719 11.4851 24.6637 11.3753C24.8465 11.3499 25.0148 11.3182 25.0378 11.3047C25.119 11.257 25.2471 10.1428 25.2795 9.20149C25.3276 7.80351 25.1956 6.52731 24.9151 5.67705C24.7482 5.17151 23.7531 3.50338 23.0914 2.61993C22.5006 1.83132 21.7345 0.919868 21.7345 1.00562ZM20.3603 16.7745C20.6145 16.9467 20.9535 17.1881 21.1136 17.3109L21.4047 17.5341L21.3752 17.9535C21.2186 20.1816 21.1905 20.3416 20.8806 20.7679C20.366 21.4757 19.5079 22.1595 18.3086 22.8174C17.3004 23.3704 17.0908 23.4664 16.9484 23.4402C16.7917 23.4114 16.0334 23.0245 15.3654 22.6326C14.3675 22.0473 13.5732 21.3836 13.102 20.7417C12.9347 20.5137 12.8836 20.3884 12.8242 20.0602C12.7419 19.6059 12.6356 18.3526 12.6354 17.8346L12.6353 17.4911L13.3989 16.9486C13.8188 16.6503 14.1874 16.4062 14.2179 16.4062C14.2484 16.4062 14.0281 16.6811 13.7284 17.0172C13.1128 17.7075 13.1392 17.6309 13.2405 18.4312C13.343 19.2405 13.4907 19.7416 13.7283 20.0864C14.223 20.8041 15.6637 21.7954 16.7632 22.1746L17.0267 22.2654L17.3127 22.1591C17.7163 22.009 18.5698 21.5486 19.0131 21.2419C19.4582 20.9339 20.1037 20.3557 20.2831 20.1042C20.3534 20.0056 20.4484 19.8211 20.4942 19.6942C20.6903 19.1503 20.8884 17.7335 20.7878 17.5939C20.7569 17.5511 20.5343 17.297 20.2931 17.0293C19.601 16.2611 19.6635 16.3386 19.7895 16.4045C19.8493 16.4357 20.1062 16.6022 20.3603 16.7745Z" fill="url(#paint0_linear_9055_47)" stroke="url(#paint1_linear_9055_47)" stroke-width="0.5" stroke-linecap="round" stroke-linejoin="round"/>
<defs>
<linearGradient id="paint0_linear_9055_47" x1="33" y1="1" x2="0.999999" y2="33" gradientUnits="userSpaceOnUse">
<stop stop-color="#EA1D22"/>
<stop offset="1" stop-color="#92070A"/>
</linearGradient>
<linearGradient id="paint1_linear_9055_47" x1="33" y1="1" x2="0.999999" y2="33" gradientUnits="userSpaceOnUse">
<stop stop-color="#EA1D22"/>
<stop offset="1" stop-color="#92070A"/>
</linearGradient>
</defs>
</svg>
